<svg xmlns="http://www.w3.org/2000/svg" version="1.1" style="display: block;" viewBox="445.96 368.1 1129.99 266.67">
<path transform="translate(0,0)" fill="#000" d="M 612.292 369.261 C 628.531 366.919 653.128 368.838 670.201 368.917 C 652.893 393.788 633.59 417.548 615.32 441.747 C 592.931 471.4 571.233 501.59 548.22 530.766 L 600.59 530.944 C 608.902 517.135 619.123 503.917 628.465 490.767 A 4696.25 4696.25 0 0 1 676.082 424.508 L 675.909 531.42 L 799.652 369.744 L 888.561 369.609 L 767.236 529.796 L 798.15 529.738 L 818.372 529.865 C 843.838 496.537 868.337 462.32 892.985 428.38 A 18551 18551 0 0 1 893.287 633.766 L 818.089 633.858 L 818.107 594.638 L 676.145 594.395 L 676.146 633.693 C 651.53 634.495 626.749 633.855 602.119 633.761 L 602.242 594.574 L 520.161 594.674 C 505.968 594.692 490.666 595.867 476.663 594.092 C 470.739 593.341 464.679 591.635 459.738 588.173 C 452.513 583.109 448.099 575.014 446.606 566.428 C 444.303 553.189 448.384 543.686 455.875 533.131 C 475.248 505.837 495.989 479.329 515.996 452.483 C 529.998 433.696 546.43 406.765 563.863 391.909 C 577.904 379.944 594.142 372.321 612.292 369.261 z"/>
<path transform="translate(0,0)" fill="#000" d="M 1497.99 369.5 A 7103.25 7103.25 0 0 1 1575.76 369.388 C 1575.86 369.914 1575.93 370.127 1575.95 370.628 C 1576.21 375.52 1493.67 609.413 1485.58 630.308 C 1484.95 631.928 1483.97 633.256 1482.83 634.553 C 1458.25 635.049 1433.57 634.554 1408.98 634.458 C 1409.16 633.743 1409.22 633.117 1409.12 632.381 C 1407.76 622.967 1398.13 601.111 1394.37 590.785 C 1385.74 567.058 1378.25 542.166 1368.26 519.037 C 1367.27 516.727 1365.99 515.019 1364.04 513.456 C 1364.18 514.185 1364.31 514.87 1364.34 515.614 C 1364.56 521.067 1323.86 630.874 1320.3 634.542 L 1095.44 634.713 C 1068.91 634.747 1043.92 626.253 1024.96 607.156 C 994.547 576.505 995.7 544.827 995.757 504.936 L 995.812 444.75 L 995.777 435.415 L 899.007 435.307 L 898.987 369.768 L 1232.03 369.836 C 1232.66 370.37 1233.27 370.956 1233.73 371.648 C 1237.23 376.886 1279.52 497.936 1283.74 512.35 C 1284.28 514.176 1284.3 515.7 1283.99 517.57 C 1284.1 517.447 1284.22 517.328 1284.33 517.201 C 1284.51 516.991 1284.68 516.77 1284.86 516.558 C 1285.41 515.913 1285.93 515.292 1286.4 514.586 C 1290.5 508.49 1297.16 484.263 1300.18 475.539 C 1311.95 441.609 1324.79 407.718 1335.57 373.481 C 1335.96 372.224 1335.87 371.069 1335.62 369.788 L 1393.48 369.584 C 1394.34 370.342 1395.04 371.171 1395.56 372.2 C 1398.88 378.704 1400.98 386.477 1403.41 393.381 L 1418.03 435.057 L 1435.7 485.63 C 1438.71 494.27 1442.47 503.167 1444.58 512.044 C 1444.98 513.746 1444.89 515.018 1444.39 516.698 C 1450.61 510.822 1491.84 387.062 1497.99 369.5 z"/>
<path transform="translate(0,0)" fill="#fff" d="M 1072.55 435.496 C 1104.95 434.036 1138.03 435.455 1170.5 435.494 C 1171.06 435.994 1171.64 436.546 1172.05 437.174 C 1176.29 443.578 1240.93 614.096 1240.95 614.965 C 1240.96 615.408 1240.78 616.175 1240.71 616.556 C 1239.36 616.97 1238.16 617.051 1236.75 617.097 C 1222.66 617.56 1208.52 617.095 1194.42 617.058 C 1158.51 616.964 1127.92 616.885 1099.97 590.656 C 1071.66 564.089 1072.69 532.192 1072.83 496.348 C 1072.91 476.087 1073.23 455.745 1072.55 435.496 z"/>
</svg>